<svg width="32" height="32" viewBox="0 0 32 32" fill="none" xmlns="http://www.w3.org/2000/svg">
<path fill-rule="evenodd" clip-rule="evenodd" d="M12.7018 8.048C11.8504 8.08686 11.2687 8.22171 10.759 8.42057C10.2333 8.624 9.78755 8.89829 9.34184 9.34286C8.89841 9.78743 8.62412 10.2343 8.42069 10.76C8.22184 11.2686 8.08698 11.8503 8.04812 12.7017C8.00926 13.5543 8.00012 13.8274 8.00012 16C8.00012 18.1726 8.00926 18.4457 8.04812 19.2983C8.08698 20.1497 8.22184 20.7314 8.42069 21.2411C8.62412 21.7669 8.89841 22.2126 9.34298 22.6583C9.78755 23.1017 10.2344 23.376 10.7601 23.5806C11.2687 23.7783 11.8504 23.912 12.7018 23.952C13.5556 23.9909 13.8276 24 16.0001 24C18.1727 24 18.4458 23.9909 19.2984 23.952C20.1498 23.9131 20.7316 23.7783 21.2413 23.5806C21.767 23.3749 22.2127 23.1017 22.6584 22.6571C23.1018 22.2126 23.3761 21.7657 23.5807 21.24C23.7784 20.7314 23.9121 20.1497 23.9521 19.2983C23.991 18.4446 24.0001 18.1726 24.0001 16C24.0001 13.8274 23.991 13.5543 23.9521 12.7017C23.9133 11.8503 23.7784 11.2686 23.5807 10.7589C23.3796 10.2249 23.0645 9.74131 22.6573 9.34171C22.2127 8.89829 21.7658 8.624 21.2401 8.42057C20.7316 8.22171 20.1498 8.08686 19.2984 8.048C18.4458 8.00914 18.1727 8 16.0001 8C13.8276 8 13.5544 8.00914 12.7018 8.048ZM11.8916 16C11.8916 17.0897 12.3244 18.1347 13.0949 18.9052C13.8654 19.6757 14.9105 20.1086 16.0001 20.1086C17.0898 20.1086 18.1348 19.6757 18.9053 18.9052C19.6758 18.1347 20.1087 17.0897 20.1087 16C20.1087 14.9103 19.6758 13.8653 18.9053 13.0948C18.1348 12.3243 17.0898 11.8914 16.0001 11.8914C14.9105 11.8914 13.8654 12.3243 13.0949 13.0948C12.3244 13.8653 11.8916 14.9103 11.8916 16ZM16.0001 18.6663C15.293 18.6663 14.6148 18.3854 14.1148 17.8853C13.6147 17.3853 13.3338 16.7071 13.3338 16C13.3338 15.2929 13.6147 14.6147 14.1148 14.1147C14.6148 13.6146 15.293 13.3337 16.0001 13.3337C16.7073 13.3337 17.3854 13.6146 17.8855 14.1147C18.3855 14.6147 18.6664 15.2929 18.6664 16C18.6664 16.7071 18.3855 17.3853 17.8855 17.8853C17.3854 18.3854 16.7073 18.6663 16.0001 18.6663ZM21.6001 11.44C21.6001 11.5661 21.5753 11.6909 21.527 11.8074C21.4788 11.9238 21.4081 12.0297 21.3189 12.1188C21.2298 12.208 21.124 12.2787 21.0075 12.3269C20.891 12.3752 20.7662 12.4 20.6401 12.4C20.5141 12.4 20.3892 12.3752 20.2727 12.3269C20.1563 12.2787 20.0504 12.208 19.9613 12.1188C19.8722 12.0297 19.8014 11.9238 19.7532 11.8074C19.705 11.6909 19.6801 11.5661 19.6801 11.44C19.6801 11.1854 19.7813 10.9412 19.9613 10.7612C20.1413 10.5811 20.3855 10.48 20.6401 10.48C20.8947 10.48 21.1389 10.5811 21.3189 10.7612C21.499 10.9412 21.6001 11.1854 21.6001 11.44Z" fill="white"/>
</svg>
